name Walk8.mot
datacolumns 19
datarows 30
range 3.20000000 3.34500000
endheader

                time	   L_ground_force_vx	   L_ground_force_vy	   L_ground_force_vz	   L_ground_force_px	   L_ground_force_py	   L_ground_force_pz	   R_ground_force_vx	   R_ground_force_vy	   R_ground_force_vz	   R_ground_force_px	   R_ground_force_py	   R_ground_force_pz	   L_ground_torque_x	   L_ground_torque_y	   L_ground_torque_z	   R_ground_torque_x	   R_ground_torque_y	   R_ground_torque_z	
          3.20000000	         -0.00000000	         -0.00000000	         -0.00000000	          0.00000000	          0.00000000	          0.00000000	          6.96275221	         80.28114964	          2.68701638	          0.47309504	          0.00000000	          0.11788961	          0.00000000	         -0.00000000	          0.00000000	          0.00000000	         -2.34840886	          0.00000000	
          3.20500000	         -0.00000000	         -0.00000000	         -0.00000000	          0.00000000	          0.00000000	          0.00000000	          4.42031555	         62.76361259	          1.75240473	          0.44905706	          0.00000000	          0.11119841	          0.00000000	         -0.00000000	          0.00000000	          0.00000000	         -1.85777076	          0.00000000	
          3.21000000	         -0.00000000	         -0.00000000	         -0.00000000	          0.00000000	          0.00000000	          0.00000000	          2.36990754	         47.73860740	          0.96558773	          0.41673070	          0.00000000	          0.10261361	          0.00000000	         -0.00000000	          0.00000000	          0.00000000	         -1.42954906	          0.00000000	
          3.21500000	         -0.00000000	         -0.00000000	         -0.00000000	          0.00000000	          0.00000000	          0.00000000	          0.80229517	         35.02319688	          0.34654057	          0.37590761	          0.00000000	          0.09209310	          0.00000000	         -0.00000000	          0.00000000	          0.00000000	         -1.06165737	          0.00000000	
          3.22000000	         -0.00000000	         -0.00000000	         -0.00000000	          0.00000000	          0.00000000	          0.00000000	         -0.31047887	         24.44027936	         -0.10068302	          0.32733067	          0.00000000	          0.07982198	          0.00000000	         -0.00000000	          0.00000000	          0.00000000	         -0.75130667	          0.00000000	
          3.22500000	         -0.00000000	         -0.00000000	         -0.00000000	          0.00000000	          0.00000000	          0.00000000	         -1.01743671	         15.83225676	         -0.38809487	          0.27312285	          0.00000000	          0.06631390	          0.00000000	         -0.00000000	          0.00000000	          0.00000000	         -0.49591655	          0.00000000	
          3.23000000	          0.00000000	         -0.00000000	         -0.00000000	          0.00000000	          0.00000000	          0.00000000	         -1.39272036	          9.07306256	         -0.54280884	          0.21716576	          0.00000000	          0.05250252	          0.00000000	         -0.00000000	          0.00000000	          0.00000000	         -0.29327513	          0.00000000	
          3.23500000	          0.00000000	          0.00000000	         -0.00000000	          0.00000000	          0.00000000	          0.00000000	         -1.52324978	          4.02102761	         -0.59910088	          0.16410926	          0.00000000	          0.03949390	          0.00000000	         -0.00000000	          0.00000000	          0.00000000	         -0.14013264	          0.00000000	
          3.24000000	          0.00000000	          0.00000000	         -0.00000000	          0.00000000	          0.00000000	          0.00000000	         -1.48648512	          0.46324080	         -0.58781824	          0.11710610	          0.00000000	          0.02802824	          0.00000000	         -0.00000000	          0.00000000	          0.00000000	         -0.03084253	          0.00000000	
          3.24500000	          0.00000000	          0.00000000	          0.00000000	          0.00000000	          0.00000000	          0.00000000	         -1.34534567	         -1.85493571	         -0.53409359	          0.07770220	          0.00000000	          0.01845884	          0.00000000	         -0.00000000	          0.00000000	          0.00000000	          0.04168237	          0.00000000	
          3.25000000	          0.00000000	          0.00000000	          0.00000000	          0.00000000	          0.00000000	          0.00000000	         -1.14843509	         -3.19483441	         -0.45740066	          0.04628794	          0.00000000	          0.01086230	          0.00000000	          0.00000000	          0.00000000	          0.00000000	          0.08489461	          0.00000000	
          3.25500000	          0.00000000	          0.00000000	          0.00000000	         -0.00000000	          0.00000000	          0.00000000	         -0.93133282	         -3.80141271	         -0.37204411	          0.02248177	          0.00000000	          0.00513170	          0.00000000	          0.00000000	          0.00000000	          0.00000000	          0.10589165	          0.00000000	
          3.26000000	          0.00000000	          0.00000000	          0.00000000	         -0.00000000	          0.00000000	         -0.00000000	         -0.71845218	         -3.88975385	         -0.28788242	          0.00543730	          0.00000000	          0.00105093	          0.00000000	          0.00000000	          0.00000000	          0.00000000	          0.11098189	          0.00000000	
          3.26500000	          0.00000000	          0.00000000	          0.00000000	         -0.00000000	          0.00000000	         -0.00000000	         -0.52511507	         -3.63877281	         -0.21114314	         -0.00592302	          0.00000000	         -0.00164911	          0.00000000	          0.00000000	          0.00000000	          0.00000000	          0.10546884	          0.00000000	
          3.27000000	          0.00000000	          0.00000000	          0.00000000	         -0.00000000	          0.00000000	         -0.00000000	         -0.35960147	         -3.19004060	         -0.14523286	         -0.01273973	          0.00000000	         -0.00325016	          0.00000000	          0.00000000	          0.00000000	          0.00000000	          0.09359212	          0.00000000	
          3.27500000	          0.00000000	          0.00000000	          0.00000000	         -0.00000000	          0.00000000	         -0.00000000	         -0.22502068	         -2.64998369	         -0.09147971	         -0.01610359	          0.00000000	         -0.00401984	          0.00000000	          0.00000000	          0.00000000	          0.00000000	          0.07857380	          0.00000000	
          3.28000000	          0.00000000	          0.00000000	          0.00000000	         -0.00000000	          0.00000000	         -0.00000000	         -0.12092021	         -2.09407398	         -0.04977391	         -0.01698718	          0.00000000	         -0.00419550	          0.00000000	          0.00000000	          0.00000000	          0.00000000	          0.06272861	          0.00000000	
          3.28500000	          0.00000000	          0.00000000	          0.00000000	         -0.00000000	          0.00000000	         -0.00000000	         -0.04459927	         -1.57196393	         -0.01909228	         -0.01621032	          0.00000000	         -0.00397633	          0.00000000	          0.00000000	          0.00000000	          0.00000000	          0.04760632	          0.00000000	
          3.29000000	          0.00000000	          0.00000000	          0.00000000	         -0.00000000	          0.00000000	         -0.00000000	          0.00787114	         -1.11282152	          0.00209322	         -0.01443010	          0.00000000	         -0.00352131	          0.00000000	          0.00000000	          0.00000000	          0.00000000	          0.03414360	          0.00000000	
          3.29500000	          0.00000000	          0.00000000	          0.00000000	         -0.00000000	          0.00000000	         -0.00000000	          0.04089688	         -0.73037167	          0.01551353	         -0.01214723	          0.00000000	         -0.00295101	          0.00000000	          0.00000000	          0.00000000	          0.00000000	          0.02280988	          0.00000000	
          3.30000000	         -0.00000000	          0.00000000	          0.00000000	         -0.00000000	          0.00000000	         -0.00000000	          0.05884120	         -0.42735041	          0.02289278	         -0.00972257	          0.00000000	         -0.00235191	          0.00000000	          0.00000000	          0.00000000	          0.00000000	          0.01373779	          0.00000000	
          3.30500000	         -0.00000000	         -0.00000000	          0.00000000	         -0.00000000	          0.00000000	         -0.00000000	          0.06569492	         -0.19923050	          0.02581441	         -0.00739875	          0.00000000	         -0.00178170	          0.00000000	          0.00000000	          0.00000000	          0.00000000	          0.00683355	          0.00000000	
          3.31000000	         -0.00000000	         -0.00000000	          0.00000000	         -0.00000000	          0.00000000	         -0.00000000	          0.06489440	         -0.03718490	          0.02564638	         -0.00532337	          0.00000000	         -0.00127513	          0.00000000	          0.00000000	          0.00000000	          0.00000000	          0.00186554	          0.00000000	
          3.31500000	         -0.00000000	         -0.00000000	         -0.00000000	         -0.00000000	          0.00000000	         -0.00000000	          0.05924868	          0.06967268	          0.02351031	         -0.00357146	          0.00000000	         -0.00084943	          0.00000000	          0.00000000	          0.00000000	          0.00000000	         -0.00146789	          0.00000000	
          3.32000000	         -0.00000000	         -0.00000000	         -0.00000000	         -0.00000000	          0.00000000	         -0.00000000	          0.05094234	          0.13268811	          0.02028111	         -0.00216553	          0.00000000	         -0.00050926	          0.00000000	         -0.00000000	          0.00000000	          0.00000000	         -0.00348946	          0.00000000	
          3.32500000	         -0.00000000	         -0.00000000	         -0.00000000	          0.00000000	          0.00000000	         -0.00000000	          0.04158672	          0.16260466	          0.01660630	         -0.00109267	          0.00000000	         -0.00025083	          0.00000000	         -0.00000000	          0.00000000	          0.00000000	         -0.00450988	          0.00000000	
          3.33000000	         -0.00000000	         -0.00000000	         -0.00000000	          0.00000000	          0.00000000	          0.00000000	          0.03229813	          0.16892950	          0.01293635	         -0.00031825	          0.00000000	         -0.00006527	          0.00000000	         -0.00000000	          0.00000000	          0.00000000	         -0.00480758	          0.00000000	
          3.33500000	         -0.00000000	         -0.00000000	         -0.00000000	          0.00000000	          0.00000000	          0.00000000	          0.02378715	          0.15962522	          0.00955978	          0.00020354	          0.00000000	          0.00005888	          0.00000000	         -0.00000000	          0.00000000	          0.00000000	         -0.00461827	          0.00000000	
          3.34000000	         -0.00000000	         -0.00000000	         -0.00000000	          0.00000000	          0.00000000	          0.00000000	          0.01644795	          0.14103414	          0.00663838	          0.00052206	          0.00000000	          0.00013385	          0.00000000	         -0.00000000	          0.00000000	          0.00000000	         -0.00413162	          0.00000000	
          3.34500000	         -0.00000000	         -0.00000000	         -0.00000000	          0.00000000	          0.00000000	          0.00000000	          0.01044062	          0.11795794	          0.00423993	          0.00068503	          0.00000000	          0.00017133	          0.00000000	         -0.00000000	          0.00000000	          0.00000000	         -0.00349277	          0.00000000	
